<?xml version="1.0" standalone="no"?><!DOCTYPE svg PUBLIC "-//W3C//DTD SVG 1.1//EN" "http://www.w3.org/Graphics/SVG/1.1/DTD/svg11.dtd"><svg t="1610176666672" class="icon" viewBox="0 0 1024 1024" version="1.1" xmlns="http://www.w3.org/2000/svg" p-id="2508" xmlns:xlink="http://www.w3.org/1999/xlink" width="200" height="200"><defs><style type="text/css"></style></defs><path d="M780.514959 152.461883l21.61773 43.23546 8.533314 17.066629 17.066629 8.533314 42.666572 21.048842L773.11942 341.332575H682.666287V250.879442l97.848672-97.848671M796.443812 56.888762l-170.666287 170.666288v130.844154l-170.666287 170.666287a30.151044 30.151044 0 0 0 0 39.822134 25.031055 25.031055 0 0 0 18.204404 7.964426 38.115471 38.115471 0 0 0 21.048842-7.964426l170.666287-170.666288H796.443812l170.666288-170.666287-113.777525-56.888763-56.888763-113.777525zM455.111238 113.777525a455.1101 455.1101 0 1 0 446.007897 363.519192l-56.888762 18.204404a401.634663 401.634663 0 1 1-315.732632-317.439294l18.204404-56.888763A455.1101 455.1101 0 0 0 455.111238 113.777525z m0 227.55505a227.55505 227.55505 0 1 0 227.555049 227.55505v-18.204404L625.777525 568.887625a170.666287 170.666287 0 1 1-170.666287-170.666288l18.204404-56.888762H455.111238z" fill="#252B3A" p-id="2509"></path></svg>