<?xml version="1.0" standalone="no"?><!DOCTYPE svg PUBLIC "-//W3C//DTD SVG 1.1//EN" "http://www.w3.org/Graphics/SVG/1.1/DTD/svg11.dtd"><svg t="1610176241048" class="icon" viewBox="0 0 1024 1024" version="1.1" xmlns="http://www.w3.org/2000/svg" p-id="3414" xmlns:xlink="http://www.w3.org/1999/xlink" width="200" height="200"><defs><style type="text/css"></style></defs><path d="M392.35584 489.3696H98.79552a27.17696 27.17696 0 0 0-27.38176 27.38176c0 15.28832 12.73856 27.38176 27.38176 27.38176h293.55008a27.17696 27.17696 0 0 0 27.38176-27.38176c0.64512-14.65344-12.09344-27.38176-27.37152-27.38176zM265.00096 607.80544H98.79552a27.17696 27.17696 0 0 0-27.38176 27.38176c0 15.27808 12.73856 27.38176 27.38176 27.38176h166.20544a27.17696 27.17696 0 0 0 27.38176-27.38176c0.63488-15.27808-12.10368-27.38176-27.38176-27.38176z m506.86976 27.38176c0-1.91488 0-3.81952-0.63488-5.7344 0-0.63488-0.63488-1.91488-0.63488-2.54976s-0.63488-1.91488-0.63488-2.54976c-0.63488-1.26976-1.26976-1.91488-1.26976-3.18464-0.63488-0.63488-0.63488-1.26976-0.63488-1.91488-1.28-1.26976-1.91488-3.18464-3.81952-4.4544l-95.51872-94.23872a27.2896 27.2896 0 0 0-38.84032 0c-10.82368 10.82368-10.82368 28.65152 0 38.84032l47.75936 47.75936h-163.0208a27.17696 27.17696 0 0 0-27.38176 27.38176c0 15.27808 12.73856 27.38176 27.38176 27.38176h163.0208l-47.75936 47.75936a27.29984 27.29984 0 0 0 0 38.85056c10.82368 10.82368 28.66176 10.82368 38.84032 0l94.88384-94.88384a28.2624 28.2624 0 0 0 3.81952-4.4544c0.63488-0.63488 0.63488-1.28 1.26976-1.91488 0.63488-1.26976 1.26976-1.91488 1.26976-3.18464 0.63488-0.63488 0.63488-1.91488 0.63488-2.54976s0.63488-1.91488 0.63488-2.54976c0.63488 0.01024 0.63488-1.90464 0.63488-3.80928zM180.9408 725.61664H98.16064c-15.28832 0-27.38176 12.73856-27.38176 27.38176a27.17696 27.17696 0 0 0 27.38176 27.38176h82.78016a27.17696 27.17696 0 0 0 27.38176-27.38176c0.63488-14.65344-12.09344-27.38176-27.38176-27.38176z m0 0" p-id="3415"></path><path d="M927.25248 286.22848l-75.776-145.82784c-18.46272-35.66592-64.95232-64.31744-105.70752-64.31744H280.92416c-40.12032 0-86.59968 28.01664-105.70752 63.68256l-75.776 142.63296c-16.55808 30.5664-29.2864 82.14528-29.2864 117.16608v22.28224a27.17696 27.17696 0 0 0 27.38176 27.38176 27.1872 27.1872 0 0 0 27.38176-27.38176V399.5648c0-1.91488 0.63488-5.09952 0.63488-7.64928h773.6832c0.63488 3.81952 0.63488 7.64928 0.63488 10.82368v475.66848a27.17696 27.17696 0 0 1-27.38176 27.38176h-719.5648c-15.28832 0-27.38176-12.73856-27.38176-27.38176v-33.7408a27.17696 27.17696 0 0 0-27.38176-27.38176 27.17696 27.17696 0 0 0-27.38176 27.38176v34.38592a82.61632 82.61632 0 0 0 82.78016 82.78016h719.5648c45.85472 0 82.78016-37.57056 82.78016-82.78016V403.39456c0-35.0208-12.09344-86.59968-28.65152-117.16608z m-789.6064 50.30912c3.18464-10.82368 7.00416-21.01248 10.82368-28.01664l75.776-142.63296c9.54368-17.82784 36.29056-34.38592 56.66816-34.38592H746.3936c20.3776 0 47.12448 16.55808 56.6784 34.38592l75.776 145.82784c3.81952 7.00416 7.00416 15.9232 10.1888 25.46688H137.64608v-0.64512z m0 0" p-id="3416"></path></svg>